<svg width="420" height="300" viewBox="0 0 420 300" fill="none" xmlns="http://www.w3.org/2000/svg">
  <rect width="420" height="300" rx="24" fill="#101820"/>
  <rect x="68" y="44" width="130" height="190" rx="14" transform="rotate(-12 68 44)" fill="#202a44" stroke="#7dd3fc" stroke-width="4"/>
  <rect x="147" y="34" width="130" height="190" rx="14" transform="rotate(8 147 34)" fill="#2d1b4e" stroke="#c084fc" stroke-width="4"/>
  <rect x="110" y="70" width="150" height="205" rx="16" fill="#f8fafc" stroke="#111827" stroke-width="5"/>
  <rect x="128" y="91" width="114" height="86" rx="12" fill="#38bdf8"/>
  <path d="M132 164C151 127 171 139 187 113C202 139 218 130 239 164H132Z" fill="#14532d"/>
  <circle cx="213" cy="112" r="18" fill="#facc15"/>
  <rect x="130" y="195" width="110" height="12" rx="6" fill="#111827"/>
  <rect x="130" y="216" width="82" height="10" rx="5" fill="#64748b"/>
  <rect x="287" y="80" width="44" height="44" rx="9" fill="#fb923c"/>
  <path d="M309 91L320 112H298L309 91Z" fill="#fff7ed"/>
  <circle cx="320" cy="194" r="24" fill="#22c55e"/>
  <path d="M310 193L318 201L331 185" stroke="#052e16" stroke-width="6" stroke-linecap="round" stroke-linejoin="round"/>
</svg>
